<svg width="42" height="41" viewBox="0 0 42 41" fill="none" xmlns="http://www.w3.org/2000/svg">
<rect x="0.375732" width="41.0003" height="41" rx="20.5" fill="#20B15A"/>
<path d="M20.8739 17.9989C19.4967 17.9989 18.3728 19.1228 18.3728 20.5C18.3728 21.8772 19.4967 23.0011 20.8739 23.0011C22.251 23.0011 23.3749 21.8772 23.3749 20.5C23.3749 19.1228 22.251 17.9989 20.8739 17.9989ZM28.3752 20.5C28.3752 19.4643 28.3846 18.438 28.3264 17.4042C28.2682 16.2033 27.9943 15.1376 27.1162 14.2595C26.2362 13.3796 25.1724 13.1075 23.9716 13.0493C22.9359 12.9912 21.9096 13.0006 20.8757 13.0006C19.84 13.0006 18.8137 12.9912 17.7799 13.0493C16.5791 13.1075 15.5134 13.3814 14.6353 14.2595C13.7553 15.1395 13.4832 16.2033 13.4251 17.4042C13.3669 18.4399 13.3763 19.4662 13.3763 20.5C13.3763 21.5338 13.3669 22.562 13.4251 23.5958C13.4832 24.7967 13.7572 25.8624 14.6353 26.7405C15.5152 27.6204 16.5791 27.8925 17.7799 27.9507C18.8156 28.0088 19.8419 27.9994 20.8757 27.9994C21.9114 27.9994 22.9378 28.0088 23.9716 27.9507C25.1724 27.8925 26.2381 27.6186 27.1162 26.7405C27.9962 25.8605 28.2682 24.7967 28.3264 23.5958C28.3864 22.562 28.3752 21.5357 28.3752 20.5ZM20.8739 24.3482C18.7443 24.3482 17.0256 22.6296 17.0256 20.5C17.0256 18.3704 18.7443 16.6518 20.8739 16.6518C23.0034 16.6518 24.7221 18.3704 24.7221 20.5C24.7221 22.6296 23.0034 24.3482 20.8739 24.3482ZM24.8797 17.3929C24.3825 17.3929 23.981 16.9914 23.981 16.4942C23.981 15.997 24.3825 15.5954 24.8797 15.5954C25.3769 15.5954 25.7784 15.997 25.7784 16.4942C25.7786 16.6122 25.7554 16.7292 25.7103 16.8383C25.6652 16.9474 25.599 17.0465 25.5155 17.13C25.432 17.2135 25.3329 17.2797 25.2238 17.3248C25.1147 17.3699 24.9978 17.393 24.8797 17.3929Z" fill="white"/>
</svg>
