<svg width="42" height="41" viewBox="0 0 42 41" fill="none" xmlns="http://www.w3.org/2000/svg">
<circle cx="20.6597" cy="20.4092" r="20.4092" fill="#20B15A"/>
<path fill-rule="evenodd" clip-rule="evenodd" d="M28.4391 26.5325H25.3039V21.6273C25.3039 20.4569 25.2842 18.9528 23.6751 18.9528C22.0441 18.9528 21.7949 20.2274 21.7949 21.5428V26.5325H18.6628V16.4443H21.6681V17.8239H21.7119C22.1294 17.031 23.1526 16.1944 24.6779 16.1944C27.8523 16.1944 28.4383 18.283 28.4383 20.9998L28.4391 26.5325ZM15.1281 15.067C14.8892 15.0672 14.6526 15.0203 14.4318 14.929C14.211 14.8376 14.0104 14.7036 13.8414 14.5347C13.6725 14.3657 13.5385 14.1651 13.4471 13.9443C13.3558 13.7235 13.3089 13.4869 13.3091 13.248C13.3091 12.8884 13.4157 12.5369 13.6154 12.2379C13.8151 11.939 14.099 11.7059 14.4312 11.5682C14.7634 11.4306 15.1289 11.3945 15.4815 11.4645C15.8342 11.5346 16.1582 11.7076 16.4126 11.9617C16.6669 12.2159 16.8402 12.5397 16.9105 12.8923C16.9809 13.2449 16.9451 13.6105 16.8077 13.9428C16.6703 14.275 16.4375 14.5591 16.1387 14.7591C15.8398 14.9591 15.4884 15.066 15.1289 15.0663L15.1281 15.067ZM16.6965 26.5325H13.5583V16.4443H16.6965V26.5325Z" fill="#F9F9F9"/>
</svg>
