<svg width="41" height="41" viewBox="0 0 41 41" fill="none" xmlns="http://www.w3.org/2000/svg">
<circle cx="20.5344" cy="20.4092" r="20.4092" fill="#20B15A"/>
<path d="M30.4101 15.5396C29.7768 15.8203 29.0964 16.0099 28.3812 16.0956C29.1192 15.654 29.6713 14.959 29.9346 14.1402C29.2412 14.5521 28.4823 14.842 27.6909 14.9973C27.1588 14.4291 26.4539 14.0525 25.6857 13.9259C24.9176 13.7994 24.1291 13.93 23.4428 14.2974C22.7564 14.6649 22.2106 15.2487 21.8901 15.9581C21.5695 16.6676 21.4922 17.463 21.67 18.2209C20.265 18.1504 18.8906 17.7852 17.6359 17.1491C16.3812 16.513 15.2742 15.6202 14.3869 14.5286C14.0835 15.0519 13.9091 15.6587 13.9091 16.305C13.9087 16.8867 14.052 17.4596 14.3262 17.9727C14.6003 18.4858 14.9969 18.9233 15.4807 19.2464C14.9196 19.2286 14.3709 19.0769 13.8803 18.8042V18.8497C13.8802 19.6657 14.1624 20.4565 14.6791 21.088C15.1957 21.7196 15.915 22.1529 16.7147 22.3145C16.1943 22.4554 15.6486 22.4761 15.1189 22.3752C15.3445 23.0773 15.7841 23.6912 16.376 24.1311C16.9679 24.5709 17.6825 24.8147 18.4198 24.8282C17.1682 25.8107 15.6224 26.3437 14.0312 26.3414C13.7493 26.3414 13.4677 26.325 13.1877 26.2921C14.8029 27.3306 16.6831 27.8817 18.6034 27.8796C25.1037 27.8796 28.6573 22.4958 28.6573 17.8265C28.6573 17.6748 28.6535 17.5216 28.6466 17.3699C29.3378 16.87 29.9345 16.251 30.4086 15.5419L30.4101 15.5396Z" fill="#F9F9F9"/>
</svg>
